<?xml version="1.0" encoding="utf-8"?>
<!-- Generator: Adobe Illustrator 24.0.2, SVG Export Plug-In . SVG Version: 6.00 Build 0)  -->
<svg version="1.1" id="Capa_4" xmlns="http://www.w3.org/2000/svg" xmlns:xlink="http://www.w3.org/1999/xlink" x="0px" y="0px"
	 viewBox="0 0 100 100" style="enable-background:new 0 0 100 100;" xml:space="preserve">
<style type="text/css">
	.st0{fill:#606060;}
</style>
<path class="st0" d="M8.9,84.6l82.2-0.1l0.1-4.9l-10.3-8.8v-29c-0.1-2.1-1.1-17.6-13.4-25.4C63.7,14,59.9,13,57,12.6
	c0.1-4.5,0-8.4,0-8.4s-0.4-1.1-1.4-2.1C53.4,0,50.7,0,49.8,0c-0.8,0-3.3,0.1-5,2c-0.7,0.8-1.1,1.6-1.2,2.2c0,2.7,0,5.4,0,8.1
	c-2.9,0.5-7,1.6-11,4.3c-11.4,7.6-12.7,21.3-12.9,23.6c-0.1,10.3-0.1,20.6-0.2,30.8L8.8,79.4L8.9,84.6z"/>
<path class="st0" d="M60.4,89.7c-0.2,1.2-0.8,4.2-3.5,6.9c-0.6,0.6-3.4,3.4-6.8,3.4c-4.3,0.1-8.8-4.1-10.3-10.3H60.4z"/>
</svg>
