<?xml version="1.0" encoding="utf-8"?>
<!-- Generator: Adobe Illustrator 24.0.2, SVG Export Plug-In . SVG Version: 6.00 Build 0)  -->
<svg version="1.1" id="Capa_2" xmlns="http://www.w3.org/2000/svg" xmlns:xlink="http://www.w3.org/1999/xlink" x="0px" y="0px"
	 viewBox="0 0 100 100" style="enable-background:new 0 0 100 100;" xml:space="preserve">
<style type="text/css">
	.st0{fill:#606060;}
</style>
<polygon class="st0" points="99.9,19.5 100,80.4 68.9,50.3 "/>
<path class="st0" d="M72.7,83.3H5.1C2.3,83.3,0,81,0,78.3V21.7c0-2.8,2.3-5.1,5.1-5.1h67.6c2.8,0,5.1,2.3,5.1,5.1v56.5
	C77.7,81,75.4,83.3,72.7,83.3z M16.7,44.4l0,11.1l16.7,0l0,16.7h11.1V55.6l16.7,0l0-11.1l-16.7,0l0-16.7l-11.1,0l0,16.7H16.7z"/>
</svg>
