<?xml version="1.0" encoding="utf-8"?>
<!-- Generator: Adobe Illustrator 24.0.2, SVG Export Plug-In . SVG Version: 6.00 Build 0)  -->
<svg version="1.1" xmlns="http://www.w3.org/2000/svg" xmlns:xlink="http://www.w3.org/1999/xlink" x="0px" y="0px"
	 viewBox="0 0 100 100" style="enable-background:new 0 0 100 100;" xml:space="preserve">
<style type="text/css">
	.st0{display:none;}
	.st1{fill:#404040;}
	.st2{fill:#FFFFFF;}
	.st3{fill:#DEDEDE;}
</style>
<g id="Capa_5" class="st0">
	
		<image style="display:inline;overflow:visible;" width="133" height="130" xlink:href="3D527FA1.jpg"  transform="matrix(1 0 0 1 -9.0797 -22.518)">
	</image>
</g>
<g id="Capa_2">
	<circle class="st1" cx="50" cy="50" r="50"/>
	<g id="Capa_4">
		<path class="st2" d="M37.8,39l34.2-19.7v42.9c0,0-2.7,4.7-6.2,5.7c-2.1,0.7-4,0.1-4.7-0.1c-3-1-5.5-4.1-5.5-7.6
			c0-3.4,1.4-6.2,4.8-7.4c1.6-0.6,4.2,0,4.2,0l0.1-9.3l-20,11.3l-0.1,18.6c0,0-2,4.9-5.3,6.3c-0.5,0.2-3.3,1.3-6.3,0
			c-3.1-1.4-5-4.9-4.7-8.3c0.3-3.3,2.6-6.1,5.2-6.9c2.2-0.7,3.9-0.2,3.9-0.2L37.8,39z M64.7,32.8L45,44.4v5.4l19.8-11.7V32.8z"/>
		<path class="st3" d="M64.7,32.9v5.2L45.3,49.6c-0.2,0.1-0.1,0.1-0.3,0.2c0,0-0.1,5-0.1,5l20-11.3l-0.1,9.3c0,0-2.6-0.6-4.2,0
			c-3.3,1.2-4.8,4.1-4.8,7.4c0,3.6,2.5,6.6,5.5,7.6c0.7,0.2,2.5,0.8,4.7,0.1c3.5-1.1,6.2-5.7,6.2-5.7V28.4L64.7,32.9z"/>
	</g>
</g>
</svg>
