<?xml version="1.0" encoding="utf-8"?>
<!-- Generator: Adobe Illustrator 24.0.2, SVG Export Plug-In . SVG Version: 6.00 Build 0)  -->
<svg version="1.1" id="Capa_2" xmlns="http://www.w3.org/2000/svg" xmlns:xlink="http://www.w3.org/1999/xlink" x="0px" y="0px"
	 viewBox="0 0 100 100" style="enable-background:new 0 0 100 100;" xml:space="preserve">
<style type="text/css">
	.st0{fill:#909090;}
</style>
<path class="st0" d="M89,100H11C5,100,0,95,0,89V11C0,5,5,0,11,0h78c6.1,0,11,5,11,11v78C100,95,95,100,89,100z M50.1,16.7
	c-9.2,0-16.7,7.5-16.7,16.7s7.5,16.7,16.7,16.7s16.7-7.5,16.7-16.7S59.3,16.7,50.1,16.7z M50,61.1c-12.7,0-29.7,5.3-33.2,16.2
	c-0.3,0.9-0.1,6.1-0.1,6.1h66.7c0,0,0.2-5-0.1-6.1C80.5,66.4,62.9,61.1,50,61.1z"/>
</svg>
