<?xml version="1.0" encoding="utf-8"?>
<!-- Generator: Adobe Illustrator 24.0.2, SVG Export Plug-In . SVG Version: 6.00 Build 0)  -->
<svg version="1.1" id="Capa_3" xmlns="http://www.w3.org/2000/svg" xmlns:xlink="http://www.w3.org/1999/xlink" x="0px" y="0px"
	 viewBox="0 0 100 100" style="enable-background:new 0 0 100 100;" xml:space="preserve">
<style type="text/css">
	.st0{fill:#909090;}
</style>
<path class="st0" d="M26.1,79.8c-0.4,0.4-10,3.2-13,4.1c-0.6,0.2-1.1-0.1-1.4-0.6L2.1,65.3c-0.2-0.4-0.1-1,0.3-1.3
	c2.5-1.9,11-8.7,11.4-8.7L14,45.2c-0.4-0.1-8.6-6.9-11.1-8.9c-0.4-0.3-0.5-0.8-0.3-1.3c1.7-3.1,7.8-14.7,9.5-18
	c0.3-0.5,0.9-0.8,1.4-0.6c3.1,0.9,12.6,3.7,13,4.1l9.8-5c-0.1-0.4,1.8-11.1,2.4-14.2c0.1-0.5,0.5-0.8,1-0.8l20.3,0.1
	c0.6,0,1.1,0.4,1.2,1c0.6,3.1,2.6,12.9,2.4,13.5l10.2,5.1c0.4-0.4,10-3.2,13-4.1c0.6-0.2,1.1,0.1,1.4,0.6l9.5,17.9
	c0.2,0.4,0.1,1-0.3,1.3c-2.5,2-10.7,8.6-11.1,8.7l-0.1,10.9c0.4,0.1,8.1,6.6,10.7,8.6c0.4,0.3,0.5,0.8,0.3,1.3l-9.5,17.9
	c-0.3,0.5-0.9,0.8-1.4,0.6c-3.1-0.9-12.6-3.7-13-4.1l-9.6,5.1c0.2,0.5-1.8,10.3-2.4,13.5c-0.1,0.6-0.6,1-1.2,1l-20.3,0.1
	c-0.5,0-0.9-0.3-1-0.8c-0.6-3.1-2.5-13.8-2.4-14.2L26.1,79.8z M40.3,35.2l-0.1,29.7L64.9,50L40.3,35.2z"/>
</svg>
