<?xml version="1.0" encoding="utf-8"?>
<!-- Generator: Adobe Illustrator 24.0.2, SVG Export Plug-In . SVG Version: 6.00 Build 0)  -->
<svg version="1.1" id="Capa_5" xmlns="http://www.w3.org/2000/svg" xmlns:xlink="http://www.w3.org/1999/xlink" x="0px" y="0px"
	 viewBox="0 0 100 100" style="enable-background:new 0 0 100 100;" xml:space="preserve">
<style type="text/css">
	.st0{fill:#606060;}
</style>
<rect x="47.1" y="32.4" class="st0" width="5.7" height="20.1"/>
<rect x="54.6" y="45.3" transform="matrix(-0.5287 0.8488 -0.8488 -0.5287 135.0034 36.3118)" class="st0" width="5.7" height="20.7"/>
<polygon class="st0" points="1.8,49.3 34.6,49.3 18.3,66.3 "/>
<path class="st0" d="M50.9,12c-20.6,0-36.7,17.1-36.7,37.7c0,3.1,0.4,6.1,1.1,9c0.1,0,0.1,0,0.2,0l6.8-2.6c-0.4-2,0-4.1,0-6.3
	c0-16.2,12.6-29.9,28.8-29.9s29.9,13.7,29.9,29.9S67.2,78.7,51,78.7c-8.1,0-15-3.2-20.3-8.5L25,75.9c6.7,6.8,15.6,10.7,26,10.7
	c20.6,0,37.8-16.5,37.8-37.1S71.5,12,50.9,12z"/>
</svg>
