<?xml version="1.0" encoding="utf-8"?>
<!-- Generator: Adobe Illustrator 24.0.2, SVG Export Plug-In . SVG Version: 6.00 Build 0)  -->
<svg version="1.1" id="Capa_2" xmlns="http://www.w3.org/2000/svg" xmlns:xlink="http://www.w3.org/1999/xlink" x="0px" y="0px"
	 viewBox="0 0 100 100" style="enable-background:new 0 0 100 100;" xml:space="preserve">
<style type="text/css">
	.st0{fill:#909090;}
</style>
<path class="st0" d="M99.7,50c0,27.3-22.2,49.5-49.5,49.5S0.7,77.3,0.7,50S22.9,0.5,50.2,0.5S99.7,22.7,99.7,50z M33.9,76.2
	C38,79.6,44,79.5,44,79.5l0,9.9l13.2,0l0-9.7c0,0,15.6-0.9,15.6-16.8c0-7.3-6.1-11.7-8.4-13.2c-3.5-2.3-4.6-2.5-11.2-4.2
	c-7-1.8-15.2-3.8-15.1-10.1c0.1-5.7,5-8,12.4-8c2.5,0,6.9,0.6,8.9,3.2c1.8,2.3,1.9,5.7,1.9,5.7l9.9,0c0,0-0.3-6.3-4.2-10.9
	c-3-3.6-9.5-5.3-9.5-5.3v-9.8L44,10.1v10c0,0-4.4,0.6-8.1,2.4c-4.6,2.2-7.6,8.1-7.5,13.6c0.1,8.1,6.6,11.7,8.3,12.8
	c6.2,4.4,25.7,5.9,26,15.1c0.1,3.4-2.6,5.9-2.8,6.2c-2.4,2.1-5.3,2.1-8.9,2.1c-3.8,0-8.2-0.4-10.6-2.8c-2.3-2.3-2.6-6.1-2.6-6.1
	l-9.6,0C28.2,63.4,28.3,71.4,33.9,76.2z"/>
</svg>
