<?xml version="1.0" encoding="utf-8"?>
<!-- Generator: Adobe Illustrator 24.0.2, SVG Export Plug-In . SVG Version: 6.00 Build 0)  -->
<svg version="1.1" id="Capa_3" xmlns="http://www.w3.org/2000/svg" xmlns:xlink="http://www.w3.org/1999/xlink" x="0px" y="0px"
	 viewBox="0 0 100 100" style="enable-background:new 0 0 100 100;" xml:space="preserve">
<style type="text/css">
	.st0{fill:#909090;}
</style>
<path class="st0" d="M91.2,80H28.7c-4.8,0-8.8-4-8.8-8.8V8.9c0-4.8,4-8.8,8.8-8.8h62.5c4.9,0,8.8,4,8.8,8.8v62.3
	C100,76,96,80,91.2,80z M60,50.1c-10.2,0-27.1,4.7-29.9,13.4c-0.2,0.7-0.2,6.5-0.2,6.5h59.9c0,0,0.2-5.6,0-6.5
	C87.6,54.8,70.3,50.1,60,50.1z M60,10.1c-8.3,0-15,6.7-15,15s6.7,15,15,15s15-6.7,15-15S68.2,10.1,60,10.1z"/>
<path class="st0" d="M0,20l9.9,0.1l0,69.9l69.9,0v9.9l-69.9,0C4.4,99.9,0,95.4,0,90L0,20z"/>
</svg>
