<?xml version="1.0" encoding="utf-8"?>
<!-- Generator: Adobe Illustrator 24.0.2, SVG Export Plug-In . SVG Version: 6.00 Build 0)  -->
<svg version="1.1" id="Capa_3" xmlns="http://www.w3.org/2000/svg" xmlns:xlink="http://www.w3.org/1999/xlink" x="0px" y="0px"
	 viewBox="0 0 100 100" style="enable-background:new 0 0 100 100;" xml:space="preserve">
<style type="text/css">
	.st0{fill:#909090;}
</style>
<path class="st0" d="M87,0.3H13C6,0.3,0.3,6,0.3,13v20.4l11-0.1l0.1-22h77.4v77.4H11.4V66.6h-11V87C0.3,94,6,99.7,13,99.7h74
	c7,0,12.7-5.7,12.7-12.7V13C99.7,6,94,0.3,87,0.3z"/>
<rect x="0.3" y="44.5" class="st0" width="69.3" height="11"/>
<polygon class="st0" points="47.4,22.5 39.4,30.4 54.7,45.3 55.1,55 40.4,69.3 47.7,77 75.8,50 "/>
</svg>
